<svg width="50" height="50" viewBox="0 0 50 50" fill="none" xmlns="http://www.w3.org/2000/svg">
    <path fill-rule="evenodd" clip-rule="evenodd" d="M16.6667 4.16666H41.6667C43.9583 4.16666 45.8333 6.04166 45.8333 8.33332V33.3333C45.8333 35.625 43.9583 37.5 41.6667 37.5H16.6667C14.375 37.5 12.5 35.625 12.5 33.3333V8.33332C12.5 6.04166 14.375 4.16666 16.6667 4.16666ZM4.16666 12.5H8.33332V41.6667H37.5V45.8333H8.33332C6.04166 45.8333 4.16666 43.9583 4.16666 41.6667V12.5ZM41.6667 33.3333H16.6667V8.33332H41.6667V33.3333ZM31.25 31.25H27.0833V22.9167H18.75V18.75H27.0833V10.4167H31.25V18.75H39.5833V22.9167H31.25V31.25Z" fill="black"/>
</svg>
