<svg width="42" height="46" viewBox="0 0 42 46" fill="none" xmlns="http://www.w3.org/2000/svg">
    <path fill-rule="evenodd" clip-rule="evenodd" d="M0.166687 22.7857C0.166687 35.0848 9.52085 45.1072 21 45.1072C23.875 45.1072 26.2084 42.6072 26.2084 39.5268C26.2084 38.1652 25.7292 36.8482 24.875 35.7991C24.7084 35.5759 24.6042 35.3304 24.6042 35.0625C24.6042 34.4375 25.0625 33.9464 25.6459 33.9464H29.3334C36.2292 33.9464 41.8334 27.942 41.8334 20.5536C41.8334 9.48215 32.4792 0.464294 21 0.464294C9.52085 0.464294 0.166687 10.4866 0.166687 22.7857ZM4.33335 22.7857C4.33335 12.942 11.8125 4.92858 21 4.92858C30.1875 4.92858 37.6667 11.9375 37.6667 20.5536C37.6667 25.4866 33.9375 29.4822 29.3334 29.4822H25.6459C22.7709 29.4822 20.4375 31.9822 20.4375 35.0625C20.4375 36.4018 20.8959 37.7188 21.75 38.7455C21.875 38.9018 22.0417 39.1697 22.0417 39.5268C22.0417 40.1518 21.5834 40.6429 21 40.6429C11.8125 40.6429 4.33335 32.6295 4.33335 22.7857ZM9.54169 18.3214C7.8158 18.3214 6.41669 19.8205 6.41669 21.6697C6.41669 23.5188 7.8158 25.0179 9.54169 25.0179C11.2676 25.0179 12.6667 23.5188 12.6667 21.6697C12.6667 19.8205 11.2676 18.3214 9.54169 18.3214ZM12.6667 12.7411C12.6667 10.8919 14.0658 9.39287 15.7917 9.39287C17.5176 9.39287 18.9167 10.8919 18.9167 12.7411C18.9167 14.5902 17.5176 16.0893 15.7917 16.0893C14.0658 16.0893 12.6667 14.5902 12.6667 12.7411ZM26.2084 9.39287C24.4825 9.39287 23.0834 10.8919 23.0834 12.7411C23.0834 14.5902 24.4825 16.0893 26.2084 16.0893C27.9342 16.0893 29.3334 14.5902 29.3334 12.7411C29.3334 10.8919 27.9342 9.39287 26.2084 9.39287ZM29.3334 21.6697C29.3334 19.8205 30.7325 18.3214 32.4584 18.3214C34.1842 18.3214 35.5834 19.8205 35.5834 21.6697C35.5834 23.5188 34.1842 25.0179 32.4584 25.0179C30.7325 25.0179 29.3334 23.5188 29.3334 21.6697Z" fill="black" fill-opacity="1"/>
</svg>
