<svg width="43" height="43" viewBox="0 0 43 43" fill="none" xmlns="http://www.w3.org/2000/svg">
    <path fill-rule="evenodd" clip-rule="evenodd" d="M12.75 0H38.25C40.5875 0 42.5 1.9125 42.5 4.25V29.75C42.5 32.0875 40.5875 34 38.25 34H12.75C10.4125 34 8.5 32.0875 8.5 29.75V4.25C8.5 1.9125 10.4125 0 12.75 0ZM0 8.5H4.25V38.25H34V42.5H4.25C1.9125 42.5 0 40.5875 0 38.25V8.5ZM31.875 4.25V14.875L29.75 13.2812L27.625 14.875V4.25H31.875ZM12.75 29.75H38.25V4.25H36.125V23.375L29.75 18.5938L23.375 23.375V4.25H12.75V29.75Z" fill="#6B6B6B"/>
</svg>
