<svg width="404" height="404" viewBox="0 0 404 404" fill="none" xmlns="http://www.w3.org/2000/svg">
    <g clip-path="url(#clip0_104_6)">
        <rect width="404" height="404" rx="20" fill="#3C3C3C"/>
        <path d="M131.045 257V163.909H169.5C176.47 163.909 182.485 165.273 187.545 168C192.636 170.697 196.561 174.47 199.318 179.318C202.076 184.136 203.455 189.742 203.455 196.136C203.455 202.561 202.045 208.182 199.227 213C196.439 217.788 192.455 221.5 187.273 224.136C182.091 226.773 175.939 228.091 168.818 228.091H145.091V210.364H164.636C168.03 210.364 170.864 209.773 173.136 208.591C175.439 207.409 177.182 205.758 178.364 203.636C179.545 201.485 180.136 198.985 180.136 196.136C180.136 193.258 179.545 190.773 178.364 188.682C177.182 186.561 175.439 184.924 173.136 183.773C170.833 182.621 168 182.045 164.636 182.045H153.545V257H131.045ZM214.545 257V163.909H253C259.97 163.909 265.985 165.273 271.045 168C276.136 170.697 280.061 174.47 282.818 179.318C285.576 184.136 286.955 189.742 286.955 196.136C286.955 202.561 285.545 208.182 282.727 213C279.939 217.788 275.955 221.5 270.773 224.136C265.591 226.773 259.439 228.091 252.318 228.091H228.591V210.364H248.136C251.53 210.364 254.364 209.773 256.636 208.591C258.939 207.409 260.682 205.758 261.864 203.636C263.045 201.485 263.636 198.985 263.636 196.136C263.636 193.258 263.045 190.773 261.864 188.682C260.682 186.561 258.939 184.924 256.636 183.773C254.333 182.621 251.5 182.045 248.136 182.045H237.045V257H214.545ZM382.545 197.636H359.818C359.515 195.303 358.894 193.197 357.955 191.318C357.015 189.439 355.773 187.833 354.227 186.5C352.682 185.167 350.848 184.152 348.727 183.455C346.636 182.727 344.318 182.364 341.773 182.364C337.258 182.364 333.364 183.47 330.091 185.682C326.848 187.894 324.348 191.091 322.591 195.273C320.864 199.455 320 204.515 320 210.455C320 216.636 320.879 221.818 322.636 226C324.424 230.152 326.924 233.288 330.136 235.409C333.379 237.5 337.212 238.545 341.636 238.545C344.121 238.545 346.379 238.227 348.409 237.591C350.47 236.955 352.273 236.03 353.818 234.818C355.394 233.576 356.682 232.076 357.682 230.318C358.712 228.53 359.424 226.515 359.818 224.273L382.545 224.409C382.152 228.53 380.955 232.591 378.955 236.591C376.985 240.591 374.273 244.242 370.818 247.545C367.364 250.818 363.152 253.424 358.182 255.364C353.242 257.303 347.576 258.273 341.182 258.273C332.758 258.273 325.212 256.424 318.545 252.727C311.909 249 306.667 243.576 302.818 236.455C298.97 229.333 297.045 220.667 297.045 210.455C297.045 200.212 299 191.53 302.909 184.409C306.818 177.288 312.106 171.879 318.773 168.182C325.439 164.485 332.909 162.636 341.182 162.636C346.818 162.636 352.03 163.424 356.818 165C361.606 166.545 365.818 168.818 369.455 171.818C373.091 174.788 376.045 178.439 378.318 182.773C380.591 187.106 382 192.061 382.545 197.636Z" fill="white"/>
        <path fill-rule="evenodd" clip-rule="evenodd" d="M122.875 139.875C121.136 139.875 119.327 140.571 118.005 141.893L105.271 154.627L131.365 180.72L144.098 167.987C146.812 165.273 146.812 160.889 144.098 158.175L127.816 141.893C126.424 140.501 124.685 139.875 122.875 139.875ZM97.8254 181.764L104.227 188.166L41.1845 251.208H34.7829V244.807L97.8254 181.764ZM20.8662 239.031L97.8254 162.072L123.919 188.166L46.96 265.125H20.8662V239.031Z" fill="url(#paint0_linear_104_6)"/>
    </g>
    <defs>
        <linearGradient id="paint0_linear_104_6" x1="83.4999" y1="139.875" x2="83.4999" y2="265.125" gradientUnits="userSpaceOnUse">
            <stop stop-color="#DC009E"/>
            <stop offset="1" stop-color="#6100DC"/>
        </linearGradient>
        <clipPath id="clip0_104_6">
            <rect width="404" height="404" rx="20" fill="white"/>
        </clipPath>
    </defs>
</svg>
